<svg role="img" viewBox="0 0 40 40" xmlns="http://www.w3.org/2000/svg">
  <title>Amazon Bedrock</title>
  <rect width="40" height="40" fill="#01A88D"/>
  <path fill="#fff" d="m16.516 32.933-2.223-1.27 3.431-1.716-.447-.894-4 2-.98-1.959L9 27.21v-3.401l3.724-1.862-.447-.894-3.741 1.87L6 21.232v-2.423l3.724-1.862-.447-.894L6 17.691v-2.924l2.523-1.681L12 15.038v3.153l-1.723.862.447.894L12.5 19.06l1.777.888.447-.894L13 18.191v-3.423l2.778-1.852A.5.5 0 0 0 16 12.5V9h-1v3.232l-2.722 1.815L9 12.207v-4.172l3-1.378V11h1V6.198l2.492-1.144L19 6.809v14.382l-7.723 3.862.447.894L19 22.309v6.882l-2.484 1.242V12.5h1v20.433Zm14.555-13.933C31.295 19.86 32.071 20.5 33 20.5c1.103 0 2-.897 2-2s-.897-2-2-2c-.929 0-1.705.64-1.929 1.5H22v-3h5.5a.5.5 0 0 0 .5-.5V9.929c.86-.224 1.5-1 1.5-1.929 0-1.103-.897-2-2-2s-2 .897-2 2c0 .929.64 1.705 1.5 1.929V12h-5V6.5a.5.5 0 0 0-.276-.447l-4-2a.5.5 0 0 0-.433-.008l-7 3.215A.5.5 0 0 0 10 7.714v4.518l-2.777 1.852A.5.5 0 0 0 7 14.5v7a.5.5 0 0 0 .223.416L10 23.768V27.5a.5.5 0 0 0 .252.434l7 4A.5.5 0 0 0 17.5 32a.5.5 0 0 0 .224-.053l4-2A.5.5 0 0 0 22 29.5V25h4v1.071c-.86.224-1.5 1-1.5 1.929 0 1.103.898 2 2 2s2-.897 2-2c0-.929-.64-1.705-1.5-1.929V24.5a.5.5 0 0 0-.5-.5H22v-3h6.293l1.491 1.49a2 2 0 1 0 .707-.707l-1.637-1.637A.5.5 0 0 0 28.5 20H22v-3h9.071Zm1.429-.5a.5.5 0 1 1 1 0 .5.5 0 0 1-1 0Zm-5.5-10a.5.5 0 1 1 1 0 .5.5 0 0 1-1 0Zm0 19.5a.5.5 0 1 1-1 0 .5.5 0 0 1 1 0Zm3-5.5a.5.5 0 1 1 1 0 .5.5 0 0 1-1 0Z"/>
</svg>
